<?xml version="1.0" encoding="utf-8"?>
<!-- Generator: Adobe Illustrator 26.5.0, SVG Export Plug-In . SVG Version: 6.00 Build 0)  -->
<svg version="1.1" id="Слой_1" xmlns="http://www.w3.org/2000/svg" xmlns:xlink="http://www.w3.org/1999/xlink" x="0px" y="0px"
	 viewBox="0 0 80 80.3" style="enable-background:new 0 0 80 80.3;" xml:space="preserve">
<style type="text/css">
	.st0{fill:#C7A17A;}
	.st1{fill-rule:evenodd;clip-rule:evenodd;fill:#151D28;}
</style>
<rect x="2" y="49.1" class="st0" width="41.2" height="26.2"/>
<path class="st0" d="M43.2,57H78V28.1H39.4V36h3.9V57z"/>
<path class="st1" d="M80,9.1V3.9C80,1.7,78.3,0,76.1,0H40c-2.1,0-3.9,1.7-3.9,3.9v5.2c0,1.1,0.5,2.2,1.3,2.9v21.7H3.9
	c-2.1,0-3.9,1.7-3.9,3.9v36.3c0,3.6,2.9,6.5,6.5,6.5h31c0.4,0,0.9,0,1.3-0.1v0.1h37.4c2.1,0,3.9-1.7,3.9-3.9v-5.2
	c0-1.1-0.5-2.2-1.3-2.9V11.9C79.5,11.2,80,10.2,80,9.1z M77.4,3.9v5.2c0,0.7-0.6,1.3-1.3,1.3H71V2.6h5.2C76.8,2.6,77.4,3.2,77.4,3.9
	z M47.7,2.6v7.8h5.2V2.6H47.7z M55.5,2.6h5.2v7.8h-5.2V2.6z M68.4,2.6h-5.2v7.8h5.2V2.6z M38.7,3.9c0-0.7,0.6-1.3,1.3-1.3h5.2v7.8
	H40c-0.7,0-1.3-0.6-1.3-1.3V3.9z M2.6,73.8c0,2.1,1.7,3.9,3.9,3.9h31c2.1,0,3.9-1.7,3.9-3.9V44.1h-2.6v-2.6h2.6v-3.9
	c0-0.7-0.6-1.3-1.3-1.3H3.9c-0.7,0-1.3,0.6-1.3,1.3v3.9h33.5v2.6H2.6V73.8z M77.4,76.4c0,0.7-0.6,1.3-1.3,1.3H42.5
	c0.8-1.1,1.3-2.4,1.3-3.9V70h32.3c0.7,0,1.3,0.6,1.3,1.3V76.4z M43.9,67.4h32.3V13H40v20.7c2.1,0,3.9,1.7,3.9,3.9V67.4z"/>
<path class="st1" d="M55.5,51.8c3,0,6.3-1.4,8.9-4c4.5-4.5,5.3-11,1.8-14.5c-3.5-3.5-10-2.7-14.5,1.8c-4.5,4.5-5.3,11-1.8,14.5
	C51.4,51.1,53.4,51.8,55.5,51.8z M62.6,46c-3,3.1-7.1,4.1-9.8,2.6l12.4-12.4C66.6,38.8,65.6,42.9,62.6,46z M60.6,33.7
	c-2.3,0-4.9,1.1-7,3.3c-3,3.1-4,7.2-2.6,9.8l12.3-12.4C62.5,33.9,61.6,33.7,60.6,33.7z"/>
<path class="st1" d="M15.6,54.5c-4.5,4.5-5.3,11-1.8,14.5c1.5,1.5,3.4,2.2,5.6,2.2c3,0,6.3-1.4,8.9-4c4.5-4.5,5.3-11,1.8-14.5
	C26.6,49.2,20.1,50,15.6,54.5z M17.4,56.4c2.1-2.1,4.7-3.3,7-3.3c1,0,1.9,0.2,2.7,0.7L14.8,66.2C13.4,63.5,14.4,59.4,17.4,56.4z
	 M16.7,68c2.6,1.5,6.7,0.5,9.8-2.6c3-3.1,4-7.2,2.6-9.8L16.7,68z"/>
</svg>
