<?xml version="1.0" encoding="utf-8"?>
<!-- Generator: Adobe Illustrator 26.5.0, SVG Export Plug-In . SVG Version: 6.00 Build 0)  -->
<svg version="1.1" id="Слой_1" xmlns="http://www.w3.org/2000/svg" xmlns:xlink="http://www.w3.org/1999/xlink" x="0px" y="0px"
	 viewBox="0 0 78.8 78.5" style="enable-background:new 0 0 78.8 78.5;" xml:space="preserve">
<style type="text/css">
	.st0{fill:#C7A17A;}
	.st1{fill-rule:evenodd;clip-rule:evenodd;fill:#232C38;}
	.st2{fill:#232C38;}
</style>
<path class="st0" d="M69.3,45.8c-1.4,3-4.5,5.1-8.1,5.1v-5.1H17.8v5.1c-3.6,0-6.6-2.1-8.1-5.1H5v27.9h69V45.8H69.3z"/>
<path class="st1" d="M71.2,40.5H75c2.1,0,3.8,1.7,3.8,3.8v30.4c0,2.1-1.7,3.8-3.8,3.8H3.8c-2.1,0-3.8-1.7-3.8-3.8V44.3
	c0-2.1,1.7-3.8,3.8-3.8h3.8v-1.3c0-4.1,2.6-7.8,6.4-9.4v-4.1c-3.8-1.5-6.4-5.2-6.4-9.4v-1.3C3.4,15.2,0,11.8,0,7.6
	C0,3.4,3.4,0,7.6,0h63.6c4.2,0,7.6,3.4,7.6,7.6c0,4.2-3.4,7.6-7.6,7.6v1.3c0,4.1-2.6,7.8-6.4,9.4v4.1c3.8,1.5,6.4,5.2,6.4,9.4V40.5z
	 M62.3,49.3c3.6-0.6,6.4-3.7,6.4-7.5v-2.5c0-2.7-1.5-5.2-3.8-6.6v1.5c0,0.5-0.1,1-0.3,1.4c1,0.9,1.6,2.2,1.6,3.6v2.5
	c0,2.4-1.6,4.3-3.8,4.9V49.3z M20.3,15.2v1.3c0,0.3-0.1,0.6-0.2,0.9c-0.7-0.5-1.5-0.9-2.4-0.9c-0.9,0-1.7,0.3-2.4,0.9
	c-0.1-0.3-0.2-0.6-0.2-0.9v-1.3H20.3z M16.5,20.3v13.9c0,0.7,0.6,1.3,1.3,1.3c0.7,0,1.3-0.6,1.3-1.3V20.3c0-0.7-0.6-1.3-1.3-1.3
	C17.1,19,16.5,19.6,16.5,20.3z M21.6,19.8c0.8-0.9,1.3-2.1,1.3-3.4v-1.3h2.5v1.3c0,2.7-1.5,5.2-3.8,6.6v-2.8c0-0.1,0-0.2,0-0.3l0,0
	l0,0l0,0l0,0v0l0,0l0,0v0C21.6,19.9,21.6,19.9,21.6,19.8z M16,37.5c-0.4,0.5-0.7,1.1-0.7,1.7v1.3h5.1v-1.3c0-0.7-0.3-1.3-0.7-1.7
	c-0.5,0.3-1.1,0.5-1.8,0.5C17.1,38,16.5,37.8,16,37.5z M21.3,35.6c0.2-0.4,0.3-0.9,0.3-1.4v-1.5c2.3,1.3,3.8,3.8,3.8,6.6v1.3h-2.5
	v-1.3C22.9,37.9,22.3,36.6,21.3,35.6z M21.6,25.8v4.1c3.8,1.5,6.4,5.2,6.4,9.4v1.3h22.9v-1.3c0-4.1,2.6-7.8,6.4-9.4v-4.1
	c-3.8-1.5-6.4-5.2-6.4-9.4v-1.3H28v1.3C28,20.6,25.4,24.3,21.6,25.8z M59.8,34.2V20.3c0-0.7,0.6-1.3,1.3-1.3c0.7,0,1.3,0.6,1.3,1.3
	v13.9c0,0.7-0.6,1.3-1.3,1.3C60.3,35.5,59.8,34.9,59.8,34.2z M63.4,17.3c0.1-0.3,0.2-0.6,0.2-0.9v-1.3h-5.1v1.3
	c0,0.3,0.1,0.6,0.2,0.9c0.7-0.5,1.5-0.9,2.4-0.9C61.9,16.5,62.8,16.8,63.4,17.3z M57.3,19.8c0,0,0,0.1,0,0.1c0,0.1,0,0.2,0,0.3V23
	c-2.3-1.3-3.8-3.8-3.8-6.6v-1.3H56v1.3C56,17.7,56.4,18.9,57.3,19.8z M57.2,32.7c-2.3,1.3-3.8,3.8-3.8,6.6v1.3H56v-1.3
	c0-1.4,0.6-2.7,1.6-3.6c-0.2-0.4-0.3-0.9-0.3-1.4V32.7z M58.5,39.3c0-0.7,0.3-1.3,0.7-1.7c0.5,0.3,1.1,0.5,1.8,0.5
	c0.7,0,1.3-0.2,1.8-0.5c0.4,0.5,0.7,1.1,0.7,1.7v1.3h-5.1V39.3z M64.9,23c2.3-1.3,3.8-3.8,3.8-6.6v-2.5c0-3.8-2.8-6.9-6.4-7.5V9
	c2.2,0.6,3.8,2.6,3.8,4.9v2.5c0,1.2-0.5,2.4-1.3,3.4c0,0,0,0.1,0,0.1l0,0v0l0,0c0,0.1,0,0.2,0,0.3V23z M2.5,7.6
	c0-2.8,2.3-5.1,5.1-5.1h63.6c2.8,0,5.1,2.3,5.1,5.1c0,2.8-2.3,5.1-5.1,5.1h-0.1c-0.6-5-4.9-8.9-10.1-8.9h-1.3v7.6H61
	c0.9,0,1.7,0.5,2.2,1.3H15.6c0.4-0.8,1.3-1.3,2.2-1.3h1.3V3.8h-1.3c-5.2,0-9.5,3.9-10.1,8.9H7.6C4.8,12.7,2.5,10.4,2.5,7.6z
	 M10.2,15.2v1.3c0,2.7,1.5,5.2,3.8,6.6v-2.8c0-0.1,0-0.2,0-0.3c0,0,0-0.1,0-0.1c-0.8-0.9-1.3-2.1-1.3-3.4v-2.5
	c0-2.4,1.6-4.3,3.8-4.9V6.4c-3.6,0.6-6.4,3.7-6.4,7.5V15.2z M10.2,39.3c0-2.7,1.5-5.2,3.8-6.6v1.5c0,0.5,0.1,1,0.3,1.4
	c-1,0.9-1.6,2.2-1.6,3.6v2.5c0,2.4,1.6,4.3,3.8,4.9v2.6c-3.6-0.6-6.4-3.7-6.4-7.5v-1.3V39.3z M75,76c0.7,0,1.3-0.6,1.3-1.3V44.3
	c0-0.7-0.6-1.3-1.3-1.3h-3.9c-0.6,5-4.9,8.9-10.1,8.9h-1.3v-7.6H61c0.9,0,1.7-0.5,2.2-1.3H15.6c0.4,0.8,1.3,1.3,2.2,1.3h1.3v7.6
	h-1.3c-5.2,0-9.5-3.9-10.1-8.9H3.8c-0.7,0-1.3,0.6-1.3,1.3v30.4c0,0.7,0.6,1.3,1.3,1.3H75z"/>
<path class="st2" d="M41.5,50.1L41.5,50.1L41.5,50.1L41.5,50.1z"/>
<path class="st1" d="M41.7,50.3c0,0.1,0.1,0.1,0.1,0.2c5.2-3,11.3-2.7,14.9,0.8c1.9,1.9,3,4.5,3,7.4c0,3.7-1.7,7.4-4.6,10.3
	c-3,3-6.9,4.5-10.6,4.5c-2.9,0-5.6-0.9-7.6-2.9l0,0c-0.5,0.1-1,0.1-1.5,0.1c-3.6,0-7.5-1.5-10.6-4.5c-3-2.9-4.6-6.6-4.6-10.3
	c0-2.9,1.1-5.5,3-7.4c4.5-4.4,12.7-3.7,18.1,1.6C41.6,50.2,41.6,50.2,41.7,50.3z M39.7,51.9c-2.6-2.5-5.8-3.8-8.8-3.8
	c-1.7,0-3.4,0.5-4.8,1.4l16,15.5c0.9-1.3,1.4-2.9,1.4-4.6C43.6,57.4,42.2,54.3,39.7,51.9z M26.8,64.3c-2.5-2.4-3.9-5.5-3.9-8.5
	c0-1.8,0.5-3.3,1.4-4.6l16,15.5C36.6,69.2,30.8,68.3,26.8,64.3z M40.1,69.7c3.7,2.2,9.3,1.3,13.3-2.6c2.5-2.4,3.9-5.5,3.9-8.5
	c0-1.8-0.5-3.3-1.4-4.6l-1.9,1.9l-1.8-1.8l1.9-1.8c-2.8-1.9-6.8-1.8-10.4,0.1c1.6,2.3,2.5,4.9,2.6,7.5l4.5-4.3l1.8,1.8L45.5,64
	c-0.5,1.4-1.3,2.7-2.4,3.7C42.2,68.6,41.2,69.3,40.1,69.7z"/>
<rect x="24.2" y="5.1" class="st2" width="25.4" height="2.5"/>
<rect x="52.1" y="5.1" class="st2" width="2.5" height="2.5"/>
</svg>
