<?xml version="1.0" encoding="utf-8"?>
<!-- Generator: Adobe Illustrator 26.5.0, SVG Export Plug-In . SVG Version: 6.00 Build 0)  -->
<svg version="1.1" id="Слой_1"
  xmlns="http://www.w3.org/2000/svg"
  xmlns:xlink="http://www.w3.org/1999/xlink" x="0px" y="0px" viewBox="0 0 150 50" style="enable-background:new 0 0 144.6 50;" xml:space="preserve">
  <g>
    <path d="M31.6,1v19.2H17.7l11.4,11.4L25.8,35L10.9,20.2v-4.8h15.8V5.8H0V1H31.6z"/>
    <path d="M37.9,5.8V1h29.4v4.8H37.9z M37.9,34.6v-4.8h29.4v4.8H37.9z M38.2,20.5v-4.8H55v4.8H38.2z"/>
    <path d="M73.5,34.6V1h4.8v26.8l27.3-27.3l3.4,3.4L78.3,34.6H73.5z"/>
    <path d="M109.1,17.8C109.1,8,117,0,126.8,0s17.8,8,17.8,17.8c0,9.8-8,17.8-17.8,17.8S109.1,27.6,109.1,17.8z M139.8,17.8
    c0-7.2-5.8-13-13-13s-13,5.8-13,13c0,7.2,5.8,13,13,13S139.8,24.9,139.8,17.8z"/>
    <path d="M4.6,47.8v-3.6l-3.4-3.4L2,40l3.2,3.2L8.3,40l0.8,0.8l-3.4,3.4v3.6H4.6z"/>
    <path d="M8.2,45c0-1.7,1.3-3,3-3c1.7,0,3,1.3,3,3c0,1.7-1.3,3-3,3C9.5,48,8.2,46.7,8.2,45z M13,45c0-1-0.8-1.8-1.9-1.8
    c-1,0-1.8,0.8-1.8,1.8c0,1,0.8,1.8,1.8,1.8C12.2,46.9,13,46,13,45z"/>
    <path d="M15.4,47.8v-5.5h1.1v4.4h3.1v-4.4h1.1v5.5H15.4z"/>
    <path d="M22.3,47.8v-5.5h4.5v1.1h-3.4v4.4H22.3z"/>
    <path d="M30.4,50v-7.7h5.5v5.5h-4.4V50H30.4z M31.5,46.7h3.3v-3.3h-3.3V46.7z"/>
    <path d="M37.5,47.8v-5.5h5.8v1.1L40,46.7h3.4v1.1H37.5z M38.6,46.6l3.3-3.3h-3.3V46.6z"/>
    <path d="M44.6,47.8v-5.5H49v1.1h-3.4v4.4H44.6z"/>
    <path d="M48.2,47.8v-1.1H52l-2.5-2.5l2.8-2.8l0.8,0.8l-2,2l2.5,2.5v1.1H48.2z"/>
    <path d="M54.2,45c0-1.7,1.3-3,3-3c1.7,0,3,1.3,3,3c0,1.7-1.3,3-3,3C55.5,48,54.2,46.7,54.2,45z M59,45c0-1-0.8-1.8-1.9-1.8
    c-1,0-1.8,0.8-1.8,1.8c0,1,0.8,1.8,1.8,1.8C58.2,46.9,59,46,59,45z"/>
    <path d="M61.3,47.8v-5.5h5.4v5.5h-1.1v-4.4h-3.2v4.4H61.3z"/>
    <path d="M68,47.8v-1.1l3.3-3.3h-3.4v-1.1h5.9v5.5H68z M69.4,46.7h3.3v-3.3L69.4,46.7z"/>
    <path d="M75.3,47.8v-7.7h1.1v7.7H75.3z"/>
    <path d="M77.5,40.5c0-0.6,0.5-1.1,1.1-1.1c0.6,0,1,0.5,1,1.1s-0.5,1.1-1,1.1C78,41.6,77.5,41.1,77.5,40.5z M78.1,47.8v-5.5h1.1v5.5
    H78.1z M78.8,40.5c0-0.1-0.1-0.2-0.2-0.2c-0.1,0-0.2,0.1-0.2,0.2s0.1,0.2,0.2,0.2C78.7,40.7,78.8,40.6,78.8,40.5z"/>
    <path d="M81,47.8v-1.1l3.3-3.3h-4.1v-1.1h5.6v1.1l-3.3,3.3h3.9v1.1H81z"/>
    <path d="M87.6,47.8v-5.5h5.8v1.1l-3.3,3.3h3.4v1.1H87.6z M88.7,46.6l3.3-3.3h-3.3V46.6z"/>
    <path d="M94.6,47.8v-5.5H99v-2.2h1.1v7.7H94.6z M95.7,46.7H99v-3.3h-3.3V46.7z"/>
    <path d="M104.6,47.8v-5.5h5.4v1.1h-4.3v3.3h4.3v1.1H104.6z"/>
    <path d="M110.7,45c0-1.7,1.3-3,3-3c1.7,0,3,1.3,3,3c0,1.7-1.3,3-3,3C112,48,110.7,46.7,110.7,45z M115.5,45c0-1-0.8-1.8-1.9-1.8
    c-1,0-1.8,0.8-1.8,1.8c0,1,0.8,1.8,1.8,1.8C114.7,46.9,115.5,46,115.5,45z"/>
    <path d="M119.5,47.8h-1.1v-4.4h-1.2v-1.1h1.2v-2.2h4v1.1h-2.9v1.1h2v1.1h-2V47.8z"/>
    <path d="M124.4,47.8h-1.1v-4.4h-1.2v-1.1h1.2v-2.2h4v1.1h-2.9v1.1h2v1.1h-2V47.8z"/>
    <path d="M127.5,47.8v-5.5h5.8v1.1l-3.3,3.3h3.4v1.1H127.5z M128.6,46.6l3.3-3.3h-3.3V46.6z"/>
    <path d="M134.6,47.8v-5.5h5.8v1.1l-3.3,3.3h3.4v1.1H134.6z M135.7,46.6l3.3-3.3h-3.3V46.6z"/>
  </g>
</svg>
